<svg xmlns:xlink="http://www.w3.org/1999/xlink" version="1.1" id="Layer_1" xmlns="http://www.w3.org/2000/svg" x="0px" y="0px"
	 width="40%" height="40%" viewBox="0 0 360 360" style="enable-background:new 0 0 356.9 355.5;" xml:space="preserve"
         preserveAspectRatio="xMidYMid"
	>
<style type="text/css">
	.st0{clip-path:url(#turn_gear_1_);fill:url(#SVGID_1_);}
	.st1{fill:none;stroke:#000000;stroke-width:1.0679;stroke-miterlimit:10;}
	.st2{fill:#FFFFFF;}
	.st3{fill:#1A1A1A;}
	.st4{fill:url(#SVGID_2_);}

</style>
  <filter id="dropshadow" height="130%">
  <feGaussianBlur in="SourceAlpha" stdDeviation="3"/> <!-- stdDeviation is how much to blur -->
  <feOffset dx="2" dy="2" result="offsetblur"/> <!-- how much to offset -->
  <feMerge>
    <feMergeNode/> <!-- this contains the offset blurred image -->
    <feMergeNode in="SourceGraphic"/> <!-- this contains the element that the filter is applied to -->
  </feMerge>
</filter>
<g>
	<defs>
		<path id="turn_gear" d="M335.6,260.6c-5.6,10.5-12.2,20.4-19.7,29.5l-23.7-5.5c-5.4,5.7-11.2,11-17.4,15.8l2.6,24.5
			c-9.6,6.4-19.8,11.9-30.5,16.4l-18.5-15.9c-7.7,2.6-15.6,4.6-23.8,6l-9,22.7c-5.6,0.5-11.4,0.8-17.2,0.8s-11.5-0.3-17.2-0.8
			l-9-22.7c-8.2-1.4-16.1-3.4-23.8-6L110,341.4c-10.7-4.5-20.9-10-30.5-16.4l2.6-24.5c-6.2-4.8-12-10.1-17.4-15.8L41,290.1
			c-7.5-9.1-14.1-19-19.7-29.5L35,240c-2.9-6.6-5.4-13.5-7.4-20.5l-23.5-6.2c-2.4-11.7-3.7-23.8-3.7-36.2c0-0.1,0-0.2,0-0.3
			l21.8-11.9c0.5-6.6,1.4-13.1,2.7-19.5L7.1,129c3.5-12.3,8.2-24.1,14.1-35.2l24.9-0.4c3.2-5,6.6-9.8,10.3-14.4l-8.3-23
			c8.9-9.5,18.8-18.1,29.5-25.5l22.2,11.2c4.7-2.7,9.5-5.2,14.5-7.5l3.3-24.4c12.3-4.5,25.2-7.6,38.5-9.3l14.4,20.2
			c2.6-0.1,5.2-0.2,7.9-0.2s5.3,0.1,7.9,0.2l14.4-20.2c13.3,1.7,26.2,4.8,38.5,9.3l3.3,24.4c5,2.2,9.8,4.7,14.5,7.5l22.2-11.2
			c10.8,7.4,20.7,16,29.5,25.5l-8.3,23c3.7,4.6,7.1,9.4,10.3,14.4l24.9,0.4c5.9,11.1,10.7,22.9,14.1,35.2l-18,16.4
			c1.3,6.4,2.2,12.9,2.7,19.5l21.8,11.9c0,0.1,0,0.2,0,0.3c0,12.4-1.3,24.5-3.7,36.2l-23.5,6.2c-2,7.1-4.5,13.9-7.4,20.5
			L335.6,260.6z M178.4,98.8c-43.6,0-79,35.4-79,79s35.4,79,79,79s79-35.4,79-79S222.1,98.8,178.4,98.8z"/>
	</defs>
<g >
	<clipPath id="turn_gear_1_" >
		<use xlink:href="#turn_gear"  id="turnme" style="overflow:visible;"/>
	</clipPath>
  </g>
	<linearGradient id="SVGID_1_" gradientUnits="userSpaceOnUse" x1="0.2135" y1="177.7879" x2="355.7221" y2="177.7879">
		<stop  offset="0" style="stop-color:#FFFFFF"/>
		<stop  offset="1" style="stop-color:#000000"/>
	</linearGradient>
	<circle class="st0" cx="178" cy="177.8" r="177.8"/>
</g>
<circle class="st1"  cx="178.4" cy="177.8" r="142.8"/>
<path class="st2"  d="M77.5,278.7c0,0-1.2-1.2-3.6-3.6c-0.6-0.6-1.2-1.2-1.9-2c-0.7-0.7-1.4-1.6-2.2-2.5c-0.8-0.9-1.7-1.8-2.6-2.9
	c-0.9-1.1-1.8-2.2-2.7-3.4c-0.5-0.6-1-1.2-1.5-1.8c-0.5-0.6-1-1.3-1.5-2c-1-1.4-2.1-2.8-3.1-4.3c-1-1.6-2.1-3.2-3.2-4.9
	c-1.1-1.7-2.1-3.5-3.2-5.4c-4.2-7.5-8.3-16.3-11.6-26.5c-3.3-10.1-5.5-21.5-6.4-33.7c-0.2-1.5-0.1-3.1-0.2-4.6
	c0-1.5-0.2-3.1-0.1-4.7c0-1.6,0-3.1,0.1-4.7c0-1.6,0.2-3.2,0.2-4.8c0.1-3.2,0.6-6.4,0.9-9.7c0.2-1.6,0.5-3.2,0.8-4.9
	c0.1-0.8,0.3-1.6,0.4-2.5c0.2-0.8,0.3-1.6,0.5-2.4c2.7-13.1,7.2-26.2,13.9-38.6c0.9-1.5,1.7-3.1,2.6-4.6c0.9-1.5,1.8-3,2.8-4.5
	l1.4-2.2l1.5-2.2c1-1.4,2-2.9,3.1-4.3l3.3-4.2c1.1-1.4,2.3-2.7,3.4-4.1c1.2-1.4,2.3-2.7,3.6-4l3.7-3.9c5-4.8,10.5-9.7,16.1-13.9
	c1.4-1.1,2.9-2,4.3-3.1l2.2-1.5l2.2-1.4c1.5-0.9,3-1.9,4.5-2.8c1.5-0.9,3.1-1.7,4.6-2.6c12.4-6.6,25.6-11.2,38.6-13.9
	c0.8-0.2,1.6-0.3,2.4-0.5c0.8-0.1,1.6-0.3,2.5-0.4c1.6-0.3,3.3-0.6,4.9-0.8c3.3-0.4,6.5-0.8,9.7-0.9c1.6-0.1,3.2-0.2,4.8-0.2
	c1.6,0,3.2,0,4.7-0.1c1.6,0,3.1,0.1,4.7,0.1c1.5,0.1,3.1,0.1,4.6,0.2c12.2,0.9,23.6,3.1,33.7,6.4c10.1,3.2,19,7.3,26.5,11.6
	c1.8,1.1,3.7,2.1,5.4,3.2c1.7,1.1,3.3,2.2,4.9,3.2c1.5,1.1,2.9,2.1,4.3,3.1c0.7,0.5,1.4,1,2,1.5c0.6,0.5,1.2,1,1.8,1.5
	c1.2,1,2.3,1.9,3.4,2.7c1,0.9,2,1.8,2.9,2.6c0.9,0.8,1.7,1.5,2.5,2.2c0.7,0.7,1.4,1.4,2,1.9c2.3,2.3,3.6,3.6,3.6,3.6
	s-1.3-1.2-3.7-3.4c-0.6-0.5-1.3-1.2-2.1-1.8c-0.8-0.6-1.6-1.3-2.6-2.1c-0.9-0.7-1.9-1.6-3-2.4c-1.1-0.8-2.3-1.7-3.5-2.6
	c-0.6-0.5-1.2-0.9-1.9-1.4c-0.7-0.5-1.4-0.9-2.1-1.4c-1.4-0.9-2.9-1.9-4.4-2.9c-1.6-0.9-3.2-1.9-4.9-2.9c-1.7-1-3.6-1.9-5.4-2.9
	c-7.5-3.9-16.4-7.6-26.4-10.5c-2.5-0.7-5.1-1.3-7.7-2c-1.3-0.3-2.7-0.5-4-0.8c-1.3-0.3-2.7-0.6-4.1-0.7c-1.4-0.2-2.8-0.4-4.2-0.7
	c-1.4-0.2-2.8-0.3-4.3-0.5c-2.9-0.4-5.8-0.5-8.8-0.7c-1.5-0.1-3-0.1-4.5-0.1c-1.5,0-3-0.1-4.5,0c-1.5,0.1-3.1,0.1-4.6,0.2
	c-1.5,0-3.1,0.2-4.6,0.3c-3.1,0.2-6.2,0.7-9.4,1.1c-1.6,0.2-3.1,0.5-4.7,0.8c-0.8,0.1-1.6,0.3-2.4,0.4c-0.8,0.2-1.6,0.4-2.4,0.5
	c-12.7,2.7-25.3,7.4-37.2,13.8c-1.5,0.8-3,1.7-4.4,2.5c-1.5,0.9-2.9,1.8-4.3,2.7l-2.2,1.4L99,62.1c-1.4,1-2.8,1.9-4.2,3
	c-5.5,4.1-10.6,8.6-15.6,13.5l-3.5,3.7c-1.2,1.2-2.3,2.5-3.4,3.8c-1.1,1.3-2.3,2.6-3.3,3.9l-3.2,4.1c-1,1.4-2,2.8-3,4.2l-1.5,2.1
	l-1.4,2.2c-0.9,1.5-1.8,2.9-2.7,4.3c-0.8,1.5-1.7,3-2.5,4.4c-6.4,12-11.1,24.6-13.8,37.2c-0.2,0.8-0.4,1.6-0.5,2.4
	c-0.1,0.8-0.3,1.6-0.4,2.4c-0.3,1.6-0.6,3.1-0.8,4.7c-0.4,3.2-0.9,6.3-1.1,9.4c-0.1,1.6-0.3,3.1-0.3,4.6c-0.1,1.5-0.1,3.1-0.2,4.6
	c-0.1,1.5,0,3,0,4.5c0,1.5,0,3,0.1,4.5c0.2,3,0.3,5.9,0.7,8.8c0.2,1.4,0.3,2.9,0.5,4.3c0.2,1.4,0.4,2.8,0.6,4.2
	c0.2,1.4,0.5,2.7,0.7,4.1c0.3,1.3,0.5,2.7,0.8,4c0.7,2.6,1.3,5.2,2,7.7c2.9,10,6.6,18.9,10.5,26.4c1,1.9,1.9,3.7,2.9,5.4
	c1,1.7,2,3.3,2.9,4.9c1,1.6,2,3,2.9,4.4c0.5,0.7,0.9,1.4,1.4,2.1c0.5,0.6,0.9,1.3,1.4,1.9c0.9,1.2,1.8,2.4,2.6,3.5
	c0.8,1.1,1.7,2,2.4,3c0.8,0.9,1.4,1.8,2.1,2.6c0.6,0.8,1.3,1.4,1.8,2.1C76.3,277.4,77.5,278.7,77.5,278.7z"/>
<path class="st3" style="filter:url(#dropshadow)" d="M279.4,76.8c0,0,1.2,1.2,3.6,3.6c0.6,0.6,1.2,1.2,1.9,2c0.7,0.7,1.4,1.6,2.2,2.5c0.8,0.9,1.7,1.8,2.6,2.9
	c0.9,1.1,1.8,2.2,2.7,3.4c0.5,0.6,1,1.2,1.5,1.8c0.5,0.6,1,1.3,1.5,2c1,1.4,2.1,2.8,3.1,4.3c1,1.6,2.1,3.2,3.2,4.9
	c1.1,1.7,2.1,3.5,3.2,5.4c4.2,7.5,8.3,16.3,11.6,26.5c3.3,10.1,5.5,21.5,6.4,33.7c0.2,1.5,0.1,3.1,0.2,4.6c0,1.5,0.2,3.1,0.1,4.7
	c0,1.6,0,3.1-0.1,4.7c0,1.6-0.2,3.2-0.2,4.8c-0.1,3.2-0.6,6.4-0.9,9.7c-0.2,1.6-0.5,3.2-0.8,4.9c-0.1,0.8-0.3,1.6-0.4,2.5
	c-0.2,0.8-0.3,1.6-0.5,2.4c-2.7,13.1-7.2,26.2-13.9,38.6c-0.9,1.5-1.7,3.1-2.6,4.6c-0.9,1.5-1.8,3-2.8,4.5l-1.4,2.2l-1.5,2.2
	c-1,1.4-2,2.9-3.1,4.3c-4.2,5.7-8.9,11.1-13.9,16.2l-3.9,3.7c-1.2,1.2-2.6,2.4-4,3.5c-1.4,1.1-2.7,2.4-4.1,3.4l-4.2,3.3
	c-1.4,1.1-2.9,2-4.3,3.1l-2.2,1.5l-2.2,1.4c-1.5,0.9-3,1.9-4.5,2.8c-1.5,0.9-3.1,1.7-4.6,2.6c-12.4,6.6-25.6,11.2-38.6,13.9
	c-0.8,0.2-1.6,0.3-2.4,0.5c-0.8,0.1-1.6,0.3-2.5,0.4c-1.6,0.3-3.3,0.6-4.9,0.8c-3.3,0.4-6.5,0.8-9.7,0.9c-1.6,0.1-3.2,0.2-4.8,0.2
	c-1.6,0-3.2,0-4.7,0.1c-1.6,0-3.1-0.1-4.7-0.1c-1.5-0.1-3.1-0.1-4.6-0.2c-12.2-0.9-23.6-3.1-33.7-6.4c-10.1-3.2-19-7.3-26.5-11.6
	c-1.8-1.1-3.7-2.1-5.4-3.2c-1.7-1.1-3.3-2.2-4.9-3.2c-1.5-1.1-2.9-2.1-4.3-3.1c-0.7-0.5-1.4-1-2-1.5c-0.6-0.5-1.2-1-1.8-1.5
	c-1.2-1-2.3-1.9-3.4-2.7c-1-0.9-2-1.8-2.9-2.6c-0.9-0.8-1.7-1.5-2.5-2.2c-0.7-0.7-1.4-1.4-2-1.9c-2.3-2.3-3.6-3.6-3.6-3.6
	s1.3,1.2,3.7,3.4c0.6,0.5,1.3,1.2,2.1,1.8c0.8,0.6,1.6,1.3,2.6,2.1c0.9,0.7,1.9,1.6,3,2.4c1.1,0.8,2.3,1.7,3.5,2.6
	c0.6,0.5,1.2,0.9,1.9,1.4c0.7,0.5,1.4,0.9,2.1,1.4c1.4,0.9,2.9,1.9,4.4,2.9c1.6,0.9,3.2,1.9,4.9,2.9c1.7,1,3.6,1.9,5.4,2.9
	c7.5,3.9,16.4,7.6,26.4,10.5c2.5,0.7,5.1,1.3,7.7,2c1.3,0.3,2.7,0.5,4,0.8c1.3,0.3,2.7,0.6,4.1,0.7c1.4,0.2,2.8,0.4,4.2,0.7
	c1.4,0.2,2.8,0.3,4.3,0.5c2.9,0.4,5.8,0.5,8.8,0.7c1.5,0.1,3,0.1,4.5,0.1c1.5,0,3,0.1,4.5,0c1.5-0.1,3.1-0.1,4.6-0.2
	c1.5,0,3.1-0.2,4.6-0.3c3.1-0.2,6.2-0.7,9.4-1.1c1.6-0.2,3.1-0.5,4.7-0.8c0.8-0.1,1.6-0.3,2.4-0.4c0.8-0.2,1.6-0.4,2.4-0.5
	c12.7-2.7,25.3-7.4,37.2-13.8c1.5-0.8,3-1.7,4.4-2.5c1.5-0.9,2.9-1.8,4.3-2.7l2.2-1.4l2.1-1.5c1.4-1,2.8-1.9,4.2-3l4.1-3.2
	c1.4-1,2.6-2.2,3.9-3.3c2.6-2.1,5.1-4.7,7.6-7c4.8-4.9,9.4-10.1,13.5-15.6c1-1.4,2-2.8,3-4.2l1.5-2.1l1.4-2.2
	c0.9-1.5,1.8-2.9,2.7-4.3c0.8-1.5,1.7-3,2.5-4.4c6.4-12,11.1-24.6,13.8-37.2c0.2-0.8,0.4-1.6,0.5-2.4c0.1-0.8,0.3-1.6,0.4-2.4
	c0.3-1.6,0.6-3.1,0.8-4.7c0.4-3.2,0.9-6.3,1.1-9.4c0.1-1.6,0.3-3.1,0.3-4.6c0.1-1.5,0.1-3.1,0.2-4.6c0.1-1.5,0-3,0-4.5
	c0-1.5,0-3-0.1-4.5c-0.2-3-0.3-5.9-0.7-8.8c-0.2-1.4-0.3-2.9-0.5-4.3c-0.2-1.4-0.4-2.8-0.6-4.2c-0.2-1.4-0.5-2.7-0.7-4.1
	c-0.3-1.3-0.5-2.7-0.8-4c-0.7-2.6-1.3-5.2-2-7.7c-2.9-10-6.6-18.9-10.5-26.4c-1-1.9-1.9-3.7-2.9-5.4c-1-1.7-2-3.3-2.9-4.9
	c-1-1.6-2-3-2.9-4.4c-0.5-0.7-0.9-1.4-1.4-2.1c-0.5-0.6-0.9-1.3-1.4-1.9c-0.9-1.2-1.8-2.4-2.6-3.5c-0.8-1.1-1.7-2-2.4-3
	c-0.8-0.9-1.4-1.8-2.1-2.6c-0.6-0.8-1.3-1.4-1.8-2.1C280.6,78.1,279.4,76.8,279.4,76.8z"/>
<linearGradient id="SVGID_2_" gradientUnits="userSpaceOnUse" x1="239.6817" y1="239.0218" x2="116.87" y2="116.21">
	<stop  offset="0" style="stop-color:#FFFFFF"/>
	<stop  offset="1" style="stop-color:#000000"/>
</linearGradient>
<path class="st4" style="filter:url(#dropshadow)" d="M265,177.8c0,47.8-38.8,86.6-86.6,86.6s-86.6-38.8-86.6-86.6s38.8-86.6,86.6-86.6S265,130,265,177.8z
	 M178.4,98.2c-44,0-79.6,35.6-79.6,79.6s35.6,79.6,79.6,79.6s79.6-35.6,79.6-79.6S222.4,98.2,178.4,98.2z"/>
<g>
	<path class="st5"  d="M138.7,198.9c-4,0-7.6-0.7-10.8-2c-3.2-1.3-5.9-3.1-8.1-5.5l7.3-7.5c4,3.7,8.2,5.5,12.6,5.5
		c1.4,0,2.5-0.3,3.3-0.8c0.9-0.5,1.3-1.3,1.3-2.2c0-0.4-0.1-0.7-0.3-1.1c-0.2-0.3-0.5-0.7-1-1c-0.5-0.3-1.2-0.7-2.1-1.1
		s-2-0.9-3.5-1.4c-1.6-0.6-3.1-1.3-4.4-2c-1.3-0.7-2.4-1.5-3.3-2.3c-0.9-0.9-1.6-1.9-2.1-3c-0.5-1.1-0.8-2.5-0.8-4
		c0-2,0.4-3.9,1.3-5.6c0.9-1.7,2.1-3.2,3.6-4.4c1.5-1.2,3.4-2.2,5.5-2.9c2.1-0.7,4.4-1,6.9-1c3.6,0,6.8,0.5,9.6,1.6
		c2.8,1.1,5.2,2.6,7.1,4.4l-7,7.8c-1.6-1.4-3.2-2.5-5-3.3c-1.8-0.8-3.7-1.2-5.8-1.2c-1.4,0-2.4,0.3-3.2,0.8
		c-0.8,0.6-1.2,1.3-1.2,2.1c0,0.4,0.1,0.8,0.3,1.1c0.2,0.3,0.5,0.6,1,0.9c0.5,0.3,1.2,0.7,2.1,1.1c0.9,0.4,2,0.9,3.4,1.4
		c1.6,0.6,3,1.2,4.3,1.9c1.3,0.7,2.4,1.5,3.4,2.4c0.9,0.9,1.7,1.9,2.2,3.1c0.5,1.2,0.8,2.5,0.8,4c0,2.1-0.4,4-1.3,5.7
		c-0.9,1.7-2.1,3.2-3.6,4.5c-1.5,1.2-3.4,2.2-5.5,2.9C143.6,198.6,141.2,198.9,138.7,198.9z"/>
	<path class="st5" d="M176.4,198.9c-4,0-7.6-0.7-10.8-2c-3.2-1.3-5.9-3.1-8.1-5.5l7.3-7.5c4,3.7,8.2,5.5,12.6,5.5
		c1.4,0,2.5-0.3,3.3-0.8c0.9-0.5,1.3-1.3,1.3-2.2c0-0.4-0.1-0.7-0.3-1.1c-0.2-0.3-0.5-0.7-1-1c-0.5-0.3-1.2-0.7-2.1-1.1
		s-2-0.9-3.5-1.4c-1.6-0.6-3.1-1.3-4.4-2c-1.3-0.7-2.4-1.5-3.3-2.3c-0.9-0.9-1.6-1.9-2.1-3c-0.5-1.1-0.8-2.5-0.8-4
		c0-2,0.4-3.9,1.3-5.6c0.9-1.7,2.1-3.2,3.6-4.4c1.5-1.2,3.4-2.2,5.5-2.9c2.1-0.7,4.4-1,6.9-1c3.6,0,6.8,0.5,9.6,1.6
		c2.8,1.1,5.2,2.6,7.1,4.4l-7,7.8c-1.6-1.4-3.2-2.5-5-3.3c-1.8-0.8-3.7-1.2-5.8-1.2c-1.4,0-2.4,0.3-3.2,0.8
		c-0.8,0.6-1.2,1.3-1.2,2.1c0,0.4,0.1,0.8,0.3,1.1c0.2,0.3,0.5,0.6,1,0.9c0.5,0.3,1.2,0.7,2.1,1.1c0.9,0.4,2,0.9,3.4,1.4
		c1.6,0.6,3,1.2,4.3,1.9c1.3,0.7,2.4,1.5,3.4,2.4c0.9,0.9,1.7,1.9,2.2,3.1c0.5,1.2,0.8,2.5,0.8,4c0,2.1-0.4,4-1.3,5.7
		c-0.9,1.7-2.1,3.2-3.6,4.5c-1.5,1.2-3.4,2.2-5.5,2.9C181.2,198.6,178.9,198.9,176.4,198.9z"/>
	<path class="st5"  d="M213.5,167.3h-12.3l2.7-9.9h35.8l-2.6,9.9h-12.3l-8.3,30.9h-11.4L213.5,167.3z"/>
</g>
</svg>